<mxfile host="app.diagrams.net" modified="2024-01-24T13:53:11.994Z" agent="Mozilla/5.0 (Windows NT 10.0; Win64; x64) AppleWebKit/537.36 (KHTML, like Gecko) Chrome/120.0.0.0 Safari/537.36" etag="XMJ7C5jb2AriLIFiVqjj" version="22.1.18" type="device">
  <diagram name="Page-1" id="-MrQJyS0MqN_yjl4azrT">
    <mxGraphModel dx="993" dy="1062" grid="0" gridSize="10" guides="1" tooltips="1" connect="1" arrows="1" fold="1" page="0" pageScale="1" pageWidth="850" pageHeight="1100" math="0" shadow="0">
      <root>
        <mxCell id="0" />
        <mxCell id="1" parent="0" />
        <mxCell id="Z95cigCYhRtAzyoX8Y3g-1" value="ตำรวจจราจร" style="shape=umlActor;verticalLabelPosition=bottom;verticalAlign=top;html=1;outlineConnect=0;fontSize=16;" vertex="1" parent="1">
          <mxGeometry x="-220" y="-311.5" width="30" height="60" as="geometry" />
        </mxCell>
        <mxCell id="Z95cigCYhRtAzyoX8Y3g-2" value="ตำรวจท้องถิ่น" style="shape=umlActor;verticalLabelPosition=bottom;verticalAlign=top;html=1;outlineConnect=0;fontSize=16;" vertex="1" parent="1">
          <mxGeometry x="-220" y="-136.5" width="30" height="60" as="geometry" />
        </mxCell>
        <mxCell id="Z95cigCYhRtAzyoX8Y3g-3" value="กรมทางหลวง" style="shape=umlActor;verticalLabelPosition=bottom;verticalAlign=top;html=1;outlineConnect=0;fontSize=16;" vertex="1" parent="1">
          <mxGeometry x="-220" y="38.5" width="30" height="60" as="geometry" />
        </mxCell>
        <mxCell id="Z95cigCYhRtAzyoX8Y3g-5" value="" style="endArrow=none;html=1;rounded=0;fontSize=12;startSize=8;endSize=8;curved=1;" edge="1" parent="1">
          <mxGeometry width="50" height="50" relative="1" as="geometry">
            <mxPoint x="-118" y="130" as="sourcePoint" />
            <mxPoint x="-118" y="-343" as="targetPoint" />
          </mxGeometry>
        </mxCell>
        <mxCell id="Z95cigCYhRtAzyoX8Y3g-6" value="ระบบแยก&lt;br&gt;ประเภทรถ" style="ellipse;whiteSpace=wrap;html=1;fontSize=16;" vertex="1" parent="1">
          <mxGeometry x="19" y="-321.5" width="120" height="80" as="geometry" />
        </mxCell>
        <mxCell id="Z95cigCYhRtAzyoX8Y3g-7" value="ระบบนับ&lt;br&gt;จำนวนรถ" style="ellipse;whiteSpace=wrap;html=1;fontSize=16;" vertex="1" parent="1">
          <mxGeometry x="19" y="-146.5" width="120" height="80" as="geometry" />
        </mxCell>
        <mxCell id="Z95cigCYhRtAzyoX8Y3g-8" value="ระบบดู&lt;br&gt;ทิศทางรถ" style="ellipse;whiteSpace=wrap;html=1;fontSize=16;" vertex="1" parent="1">
          <mxGeometry x="19" y="28.5" width="120" height="80" as="geometry" />
        </mxCell>
        <mxCell id="Z95cigCYhRtAzyoX8Y3g-9" value="ระบบใส่&lt;br&gt;ข้อมูลวิดีโอ" style="ellipse;whiteSpace=wrap;html=1;fontSize=16;" vertex="1" parent="1">
          <mxGeometry x="139" y="-226.5" width="120" height="80" as="geometry" />
        </mxCell>
        <mxCell id="Z95cigCYhRtAzyoX8Y3g-10" value="การเลือก&lt;br&gt;ทางแยกที่ต้องการ&lt;br&gt;ประมวล" style="ellipse;whiteSpace=wrap;html=1;fontSize=16;" vertex="1" parent="1">
          <mxGeometry x="139" y="-64" width="120" height="80" as="geometry" />
        </mxCell>
        <mxCell id="Z95cigCYhRtAzyoX8Y3g-11" value="" style="endArrow=none;html=1;rounded=0;fontSize=12;startSize=8;endSize=8;curved=1;" edge="1" parent="1">
          <mxGeometry width="50" height="50" relative="1" as="geometry">
            <mxPoint x="381" y="128" as="sourcePoint" />
            <mxPoint x="381" y="-345" as="targetPoint" />
          </mxGeometry>
        </mxCell>
        <mxCell id="Z95cigCYhRtAzyoX8Y3g-12" value="IT Admin" style="shape=umlActor;verticalLabelPosition=bottom;verticalAlign=top;html=1;outlineConnect=0;fontSize=16;" vertex="1" parent="1">
          <mxGeometry x="464" y="-138.5" width="30" height="60" as="geometry" />
        </mxCell>
        <mxCell id="Z95cigCYhRtAzyoX8Y3g-13" value="" style="endArrow=none;html=1;rounded=0;fontSize=12;startSize=8;endSize=8;curved=1;" edge="1" parent="1" source="Z95cigCYhRtAzyoX8Y3g-7">
          <mxGeometry width="50" height="50" relative="1" as="geometry">
            <mxPoint x="143" y="-52" as="sourcePoint" />
            <mxPoint x="-167" y="-274" as="targetPoint" />
          </mxGeometry>
        </mxCell>
        <mxCell id="Z95cigCYhRtAzyoX8Y3g-14" value="" style="endArrow=none;html=1;rounded=0;fontSize=12;startSize=8;endSize=8;curved=1;exitX=0;exitY=0;exitDx=0;exitDy=0;" edge="1" parent="1" source="Z95cigCYhRtAzyoX8Y3g-8">
          <mxGeometry width="50" height="50" relative="1" as="geometry">
            <mxPoint x="47" y="-125" as="sourcePoint" />
            <mxPoint x="-169" y="-271" as="targetPoint" />
          </mxGeometry>
        </mxCell>
        <mxCell id="Z95cigCYhRtAzyoX8Y3g-15" value="" style="endArrow=none;html=1;rounded=0;fontSize=12;startSize=8;endSize=8;curved=1;" edge="1" parent="1" source="Z95cigCYhRtAzyoX8Y3g-7">
          <mxGeometry width="50" height="50" relative="1" as="geometry">
            <mxPoint x="47" y="50" as="sourcePoint" />
            <mxPoint x="-158" y="-110" as="targetPoint" />
          </mxGeometry>
        </mxCell>
        <mxCell id="Z95cigCYhRtAzyoX8Y3g-16" value="" style="endArrow=none;html=1;rounded=0;fontSize=12;startSize=8;endSize=8;curved=1;exitX=0;exitY=1;exitDx=0;exitDy=0;" edge="1" parent="1" source="Z95cigCYhRtAzyoX8Y3g-6">
          <mxGeometry width="50" height="50" relative="1" as="geometry">
            <mxPoint x="19" y="-104" as="sourcePoint" />
            <mxPoint x="-163" y="63" as="targetPoint" />
          </mxGeometry>
        </mxCell>
        <mxCell id="Z95cigCYhRtAzyoX8Y3g-17" value="" style="endArrow=none;html=1;rounded=0;fontSize=12;startSize=8;endSize=8;curved=1;exitX=0;exitY=1;exitDx=0;exitDy=0;" edge="1" parent="1" source="Z95cigCYhRtAzyoX8Y3g-7">
          <mxGeometry width="50" height="50" relative="1" as="geometry">
            <mxPoint x="29" y="-97" as="sourcePoint" />
            <mxPoint x="-161" y="66" as="targetPoint" />
          </mxGeometry>
        </mxCell>
        <mxCell id="Z95cigCYhRtAzyoX8Y3g-18" value="" style="endArrow=none;html=1;rounded=0;fontSize=12;startSize=8;endSize=8;curved=1;exitX=0;exitY=0.5;exitDx=0;exitDy=0;" edge="1" parent="1" source="Z95cigCYhRtAzyoX8Y3g-8">
          <mxGeometry width="50" height="50" relative="1" as="geometry">
            <mxPoint x="39" y="-87" as="sourcePoint" />
            <mxPoint x="-161" y="69" as="targetPoint" />
          </mxGeometry>
        </mxCell>
        <mxCell id="Z95cigCYhRtAzyoX8Y3g-19" value="" style="endArrow=none;html=1;rounded=0;fontSize=12;startSize=8;endSize=8;curved=1;exitX=1;exitY=0.5;exitDx=0;exitDy=0;" edge="1" parent="1" source="Z95cigCYhRtAzyoX8Y3g-7">
          <mxGeometry width="50" height="50" relative="1" as="geometry">
            <mxPoint x="340" y="-66" as="sourcePoint" />
            <mxPoint x="448" y="-104" as="targetPoint" />
          </mxGeometry>
        </mxCell>
        <mxCell id="Z95cigCYhRtAzyoX8Y3g-20" value="" style="endArrow=none;html=1;rounded=0;fontSize=12;startSize=8;endSize=8;curved=1;" edge="1" parent="1" source="Z95cigCYhRtAzyoX8Y3g-10">
          <mxGeometry width="50" height="50" relative="1" as="geometry">
            <mxPoint x="149" y="-96" as="sourcePoint" />
            <mxPoint x="447" y="-92" as="targetPoint" />
          </mxGeometry>
        </mxCell>
        <mxCell id="Z95cigCYhRtAzyoX8Y3g-21" value="" style="endArrow=none;html=1;rounded=0;fontSize=12;startSize=8;endSize=8;curved=1;exitX=0.953;exitY=0.738;exitDx=0;exitDy=0;exitPerimeter=0;" edge="1" parent="1" source="Z95cigCYhRtAzyoX8Y3g-9">
          <mxGeometry width="50" height="50" relative="1" as="geometry">
            <mxPoint x="301" y="-28" as="sourcePoint" />
            <mxPoint x="447" y="-113" as="targetPoint" />
          </mxGeometry>
        </mxCell>
        <mxCell id="Z95cigCYhRtAzyoX8Y3g-22" value="" style="endArrow=none;html=1;rounded=0;fontSize=12;startSize=8;endSize=8;curved=1;exitX=1;exitY=0.5;exitDx=0;exitDy=0;" edge="1" parent="1" source="Z95cigCYhRtAzyoX8Y3g-8">
          <mxGeometry width="50" height="50" relative="1" as="geometry">
            <mxPoint x="311" y="-18" as="sourcePoint" />
            <mxPoint x="446" y="-78" as="targetPoint" />
          </mxGeometry>
        </mxCell>
        <mxCell id="Z95cigCYhRtAzyoX8Y3g-23" value="" style="endArrow=none;html=1;rounded=0;fontSize=12;startSize=8;endSize=8;curved=1;exitX=1;exitY=0.5;exitDx=0;exitDy=0;" edge="1" parent="1" source="Z95cigCYhRtAzyoX8Y3g-6">
          <mxGeometry width="50" height="50" relative="1" as="geometry">
            <mxPoint x="263" y="-169" as="sourcePoint" />
            <mxPoint x="448" y="-125" as="targetPoint" />
          </mxGeometry>
        </mxCell>
      </root>
    </mxGraphModel>
  </diagram>
</mxfile>
